<?xml version="1.0" encoding="UTF-8" standalone="no"?>
<!-- Created with Inkscape (http://www.inkscape.org/) -->

<svg
   version="1.1"
   id="svg1"
   width="71.319847"
   height="77.195786"
   viewBox="0 0 71.319847 77.195786"
   xmlns="http://www.w3.org/2000/svg"
   xmlns:svg="http://www.w3.org/2000/svg">
  <defs
     id="defs1" />
  <g
     id="g1"
     transform="translate(61.497145,65.86035)">
    <path
       style="fill:#000000;fill-opacity:1"
       d="m -8.3476822,11.192143 c -7.0112798,-1.05302 -9.1302198,-1.9012797 -24.0177898,-9.6148797 -5.2606,-2.725635 -6.32007,-2.955295 -14.78221,-3.204365 -6.08952,-0.17923 -7.65309,-0.43718 -5.12,-0.84469 1.50999,-0.24292 2.48846,-0.92385 3.20183,-2.22818 0.50073,-0.91555 0.56836,-2.39202 0.65716,-14.3479353 l 0.099,-13.327359 -1.64248,-0.225899 c -2.46714,-0.339318 -5.76747,-2.131817 -7.57362,-4.113438 -5.81481,-6.379722 -5.18363,-15.921194 1.49583,-22.612475 2.76782,-2.77272 5.42838,-4.305805 9.77419,-5.632155 2.66568,-0.813569 3.28588,-0.876967 8.78809,-0.89833 5.27209,-0.02047 6.19873,0.05771 8.46671,0.714339 7.33887,2.124744 13.14186,6.710461 15.42101,12.186183 0.75652,1.817579 0.88315,2.570777 0.89661,5.33309 0.0151,3.108109 -0.0266,3.302379 -1.23602,5.76 -2.10693,4.281229 -6.05201,7.576664 -11.27891,9.421583 -1.31505,0.464171 -2.41764,0.919631 -2.4502,1.012134 -0.10933,0.310612 13.31913,18.259412 15.09976,20.182712 4.3899798,4.7417003 9.3366598,7.2958803 14.0991198,7.2799503 1.34295,-0.004 2.56889,-0.21914 3.39516,-0.59446 1.2008,-0.54545 2.79771,-2.07137 3.09215,-2.95469 0.0696,-0.2089 0.30555,-0.32017 0.52425,-0.24727 0.60462,0.20154 -1.35508,2.965 -2.91737,4.11392 -5.15775002,3.79304498 -13.59244,3.25260998 -20.5964998,-1.31968 -3.80702,-2.48526 -6.72626,-5.7869803 -14.19577,-16.0557363 -5.12728,-7.048755 -7.06596,-9.483381 -7.60995,-9.55669 -0.40147,-0.0541 -0.76147,-0.242369 -0.8,-0.418369 -0.0415,-0.18953 1.10418,-0.358473 2.80995,-0.414361 4.70561,-0.154177 7.57188,-1.404765 10.62248,-4.634726 2.66026,-2.816667 3.91548,-6.146517 3.9297,-10.424723 0.0164,-4.939366 -1.8776,-9.276107 -5.59229,-12.804695 -6.34898,-6.030914 -15.66084,-7.198635 -24.42997,-3.063557 -6.30895,2.974976 -10.30797,8.937011 -10.2821,15.329294 0.0162,4.011611 1.17533,6.821756 3.97651,9.640771 2.12887,2.142438 4.6044,3.331997 6.93404,3.331997 h 1.29437 l -0.10637,-8.88 c -0.0774,-6.458768 -0.21802,-9.075413 -0.51586,-9.596688 -0.54669,-0.956838 -2.02036,-1.683312 -3.41462,-1.683312 -0.62474,0 -1.13589,-0.144 -1.13589,-0.32 0,-0.205432 3.09333,-0.32 8.64,-0.32 5.54667,0 8.64,0.114568 8.64,0.32 0,0.176 -0.43663,0.32 -0.97028,0.32 -1.51688,0 -3.14953,0.829392 -3.59155,1.824522 -0.30123,0.67816 -0.42075,6.199413 -0.49248,22.75082 -0.0949,21.8903733 0.0556,25.9231333 1.00281,26.8703133 0.52102,0.52101 11.06789,3.66618498 17.9715,5.359265 2.464,0.60429 7.216,1.62965 10.56,2.27857 5.3096598,1.03037 6.7084298,1.18345 11.03999978,1.20819 4.79556002,0.0274 5.02362002,-0.001 6.87906002,-0.87017 1.05548,-0.49417 2.24291,-1.20274 2.63874,-1.5746 0.39582,-0.37185 0.82824,-0.56714 0.96094,-0.43396 0.13269,0.13318 -0.88372,1.32111 -2.25869,2.63984 -1.76547,1.69327 -3.19057,2.72568 -4.85061,3.51403 -3.25982002,1.5480797 -7.84939,2.3064897 -11.04944,1.8258697 z"
       id="path34" />
  </g>
</svg>
